<svg width="229" height="83" viewBox="0 0 229 83" fill="none" xmlns="http://www.w3.org/2000/svg">
<path d="M106.264 39.576C106.008 39.576 105.832 39.464 105.736 39.24C105.608 38.888 105.448 38.424 105.256 37.848C105.064 37.24 104.888 36.728 104.728 36.312L95.944 12.744C95.624 11.848 95.192 11.096 94.648 10.488C94.104 9.88 93.416 9.464 92.584 9.24C92.072 9.08 91.672 8.92 91.384 8.76C91.128 8.6 91 8.408 91 8.184C91 7.992 91.128 7.864 91.384 7.8C91.64 7.704 91.976 7.656 92.392 7.656C92.904 7.656 93.464 7.672 94.072 7.704C94.712 7.736 95.384 7.768 96.088 7.8C96.792 7.8 97.512 7.8 98.248 7.8C98.888 7.8 99.512 7.8 100.12 7.8C100.76 7.768 101.336 7.752 101.848 7.752C102.392 7.72 102.824 7.704 103.144 7.704C103.56 7.704 103.896 7.752 104.152 7.848C104.408 7.912 104.536 8.04 104.536 8.232C104.536 8.456 104.408 8.664 104.152 8.856C103.896 9.016 103.496 9.128 102.952 9.192C102.056 9.288 101.304 9.496 100.696 9.816C100.12 10.104 99.832 10.52 99.832 11.064C99.832 11.608 99.896 12.088 100.024 12.504C100.184 12.888 100.296 13.192 100.36 13.416L107.272 31.656C107.336 31.784 107.416 31.864 107.512 31.896C107.608 31.928 107.704 31.832 107.8 31.608L114.376 14.328C115.016 12.632 115.048 11.4 114.472 10.632C113.928 9.832 113.144 9.368 112.12 9.24C111.64 9.176 111.256 9.064 110.968 8.904C110.68 8.712 110.536 8.504 110.536 8.28C110.536 8.088 110.664 7.96 110.92 7.896C111.176 7.8 111.512 7.752 111.928 7.752C112.344 7.752 112.808 7.752 113.32 7.752C113.832 7.752 114.36 7.768 114.904 7.8C115.48 7.8 116.072 7.8 116.68 7.8C117.608 7.8 118.6 7.784 119.656 7.752C120.712 7.688 121.544 7.656 122.152 7.656C122.568 7.656 122.904 7.704 123.16 7.8C123.416 7.864 123.544 7.992 123.544 8.184C123.544 8.408 123.416 8.6 123.16 8.76C122.904 8.888 122.504 9.016 121.96 9.144C120.776 9.4 119.784 9.944 118.984 10.776C118.184 11.608 117.608 12.456 117.256 13.32L108.232 35.208C108.168 35.368 108.04 35.704 107.848 36.216C107.688 36.696 107.512 37.224 107.32 37.8C107.128 38.376 106.936 38.856 106.744 39.24C106.712 39.336 106.648 39.416 106.552 39.48C106.456 39.544 106.36 39.576 106.264 39.576ZM124.425 39.144C124.137 39.144 123.897 39.096 123.705 39C123.545 38.936 123.465 38.808 123.465 38.616C123.465 38.36 123.577 38.184 123.801 38.088C124.057 37.992 124.313 37.912 124.569 37.848C125.241 37.688 125.753 37.496 126.105 37.272C126.457 37.016 126.633 36.6 126.633 36.024V25.608C126.633 24.744 126.473 23.976 126.153 23.304C125.865 22.632 125.305 22.232 124.473 22.104C124.313 22.072 124.185 22.008 124.089 21.912C124.025 21.816 123.993 21.672 123.993 21.48C123.993 21.128 124.137 20.936 124.425 20.904C125.705 20.616 126.761 20.232 127.593 19.752C128.425 19.24 129.049 18.824 129.465 18.504C129.753 18.28 129.977 18.168 130.137 18.168C130.329 18.168 130.425 18.248 130.425 18.408C130.425 18.664 130.377 19.176 130.281 19.944C130.217 20.68 130.153 21.512 130.089 22.44C130.025 23.336 129.993 24.152 129.993 24.888V36.024C129.993 36.568 130.169 36.968 130.521 37.224C130.905 37.48 131.417 37.688 132.057 37.848C132.313 37.912 132.553 37.992 132.777 38.088C133.033 38.184 133.161 38.36 133.161 38.616C133.161 38.968 132.841 39.144 132.201 39.144C131.593 39.144 131.097 39.112 130.713 39.048C130.361 39.016 130.009 38.984 129.657 38.952C129.337 38.92 128.889 38.904 128.312 38.904C127.769 38.904 127.321 38.92 126.969 38.952C126.617 38.984 126.265 39.016 125.913 39.048C125.561 39.112 125.065 39.144 124.425 39.144ZM128.265 14.232C127.593 14.232 127.017 14.008 126.537 13.56C126.089 13.08 125.865 12.504 125.865 11.832C125.865 11.128 126.089 10.552 126.537 10.104C127.017 9.624 127.593 9.384 128.265 9.384C128.969 9.384 129.545 9.624 129.993 10.104C130.473 10.552 130.713 11.128 130.713 11.832C130.713 12.504 130.473 13.08 129.993 13.56C129.545 14.008 128.969 14.232 128.265 14.232ZM135.95 39.144C135.79 39.144 135.582 39.112 135.326 39.048C135.102 39.016 134.99 38.904 134.99 38.712C134.99 38.456 135.102 38.28 135.326 38.184C135.582 38.056 135.838 37.944 136.094 37.848C136.574 37.688 137.038 37.512 137.486 37.32C137.934 37.096 138.158 36.664 138.158 36.024V11.832C138.158 10.904 137.982 10.136 137.63 9.528C137.31 8.888 136.75 8.488 135.95 8.328C135.694 8.264 135.566 8.056 135.566 7.704C135.566 7.384 135.678 7.192 135.902 7.128C136.734 6.936 137.454 6.744 138.062 6.552C138.67 6.328 139.23 6.104 139.742 5.88C140.286 5.656 140.814 5.448 141.326 5.256C141.454 5.192 141.55 5.16 141.614 5.16C141.678 5.16 141.726 5.208 141.758 5.304C141.822 5.368 141.854 5.432 141.854 5.496C141.854 5.784 141.79 6.408 141.662 7.368C141.566 8.296 141.518 9.848 141.518 12.024V36.024C141.518 36.664 141.742 37.096 142.19 37.32C142.638 37.512 143.102 37.688 143.582 37.848C143.838 37.944 144.078 38.056 144.302 38.184C144.558 38.28 144.686 38.456 144.686 38.712C144.686 38.904 144.558 39.016 144.302 39.048C144.078 39.112 143.886 39.144 143.726 39.144C143.118 39.144 142.622 39.112 142.238 39.048C141.886 39.016 141.534 38.984 141.182 38.952C140.862 38.92 140.414 38.904 139.838 38.904C139.294 38.904 138.846 38.92 138.494 38.952C138.142 38.984 137.79 39.016 137.438 39.048C137.086 39.112 136.59 39.144 135.95 39.144ZM147.481 39.144C147.321 39.144 147.113 39.112 146.857 39.048C146.633 39.016 146.521 38.904 146.521 38.712C146.521 38.456 146.633 38.28 146.857 38.184C147.113 38.056 147.369 37.944 147.625 37.848C148.105 37.688 148.569 37.512 149.017 37.32C149.465 37.096 149.689 36.664 149.689 36.024V11.832C149.689 10.904 149.513 10.136 149.161 9.528C148.841 8.888 148.281 8.488 147.481 8.328C147.225 8.264 147.097 8.056 147.097 7.704C147.097 7.384 147.209 7.192 147.433 7.128C148.265 6.936 148.985 6.744 149.593 6.552C150.201 6.328 150.761 6.104 151.273 5.88C151.817 5.656 152.345 5.448 152.857 5.256C152.985 5.192 153.081 5.16 153.145 5.16C153.209 5.16 153.257 5.208 153.289 5.304C153.353 5.368 153.385 5.432 153.385 5.496C153.385 5.784 153.321 6.408 153.193 7.368C153.097 8.296 153.049 9.848 153.049 12.024V36.024C153.049 36.664 153.273 37.096 153.721 37.32C154.169 37.512 154.633 37.688 155.113 37.848C155.369 37.944 155.609 38.056 155.833 38.184C156.089 38.28 156.217 38.456 156.217 38.712C156.217 38.904 156.089 39.016 155.833 39.048C155.609 39.112 155.417 39.144 155.257 39.144C154.649 39.144 154.153 39.112 153.769 39.048C153.417 39.016 153.065 38.984 152.713 38.952C152.393 38.92 151.945 38.904 151.369 38.904C150.825 38.904 150.377 38.92 150.025 38.952C149.673 38.984 149.321 39.016 148.969 39.048C148.617 39.112 148.121 39.144 147.481 39.144ZM168.373 39.672C166.581 39.672 164.965 39.256 163.525 38.424C162.085 37.592 160.933 36.456 160.069 35.016C159.237 33.544 158.821 31.88 158.821 30.024C158.821 28.68 159.077 27.368 159.589 26.088C160.133 24.808 160.885 23.64 161.845 22.584C162.805 21.528 163.925 20.696 165.205 20.088C166.485 19.448 167.861 19.128 169.333 19.128C171.189 19.128 172.853 19.576 174.325 20.472C175.829 21.368 177.013 22.552 177.877 24.024C178.773 25.464 179.221 27.048 179.221 28.776C179.221 30.632 178.805 32.392 177.973 34.056C177.173 35.72 175.973 37.08 174.373 38.136C172.773 39.16 170.773 39.672 168.373 39.672ZM169.381 38.232C170.469 38.232 171.445 38.024 172.309 37.608C173.173 37.192 173.845 36.52 174.325 35.592C174.709 34.856 174.965 33.96 175.093 32.904C175.221 31.848 175.285 30.856 175.285 29.928C175.285 28.392 174.997 26.92 174.421 25.512C173.877 24.072 173.093 22.904 172.069 22.008C171.077 21.08 169.893 20.616 168.517 20.616C167.653 20.616 166.869 20.76 166.165 21.048C165.493 21.304 164.869 21.8 164.293 22.536C163.653 23.336 163.237 24.312 163.045 25.464C162.853 26.616 162.757 27.768 162.757 28.92C162.757 30.488 163.045 31.992 163.621 33.432C164.197 34.84 164.981 35.992 165.973 36.888C166.965 37.784 168.101 38.232 169.381 38.232Z" fill="black"/>
<path d="M109.816 76.672C107.608 76.672 105.496 76.288 103.48 75.52C101.496 74.72 99.72 73.616 98.152 72.208C96.616 70.8 95.4 69.152 94.504 67.264C93.608 65.344 93.16 63.28 93.16 61.072C93.16 58.704 93.624 56.496 94.552 54.448C95.48 52.4 96.76 50.608 98.392 49.072C100.024 47.536 101.896 46.336 104.008 45.472C106.152 44.608 108.424 44.176 110.824 44.176C111.368 44.176 112.104 44.24 113.032 44.368C113.992 44.464 114.968 44.592 115.96 44.752C116.984 44.912 117.896 45.088 118.696 45.28C119.528 45.44 120.104 45.6 120.424 45.76C120.584 45.824 120.68 45.904 120.712 46C120.776 46.064 120.824 46.176 120.856 46.336C120.984 47.264 121.096 48.192 121.192 49.12C121.288 50.016 121.336 50.784 121.336 51.424C121.336 51.648 121.256 51.872 121.096 52.096C120.968 52.288 120.808 52.384 120.616 52.384C120.296 52.384 120.056 52.24 119.896 51.952C119.736 51.664 119.608 51.376 119.512 51.088C119.32 50.576 119.112 50.144 118.888 49.792C118.696 49.408 118.408 48.992 118.024 48.544C117.832 48.288 117.416 47.968 116.776 47.584C116.168 47.168 115.336 46.8 114.28 46.48C113.224 46.16 111.928 46 110.392 46C108.536 46 106.84 46.4 105.304 47.2C103.768 47.968 102.44 49.04 101.32 50.416C100.232 51.76 99.384 53.296 98.776 55.024C98.2 56.752 97.912 58.56 97.912 60.448C97.912 62.72 98.264 64.752 98.968 66.544C99.672 68.336 100.616 69.856 101.8 71.104C102.984 72.352 104.328 73.296 105.832 73.936C107.336 74.576 108.888 74.896 110.488 74.896C112.344 74.896 113.704 74.672 114.568 74.224C115.464 73.776 116.056 73.408 116.344 73.12C116.696 72.768 117.016 72.272 117.304 71.632C117.624 70.992 117.784 70.256 117.784 69.424C117.784 69.136 117.784 68.832 117.784 68.512C117.816 68.192 117.832 67.872 117.832 67.552C117.864 67.232 117.88 66.928 117.88 66.64C117.88 66.288 117.864 66 117.832 65.776C117.8 65.52 117.736 65.328 117.64 65.2C117.384 64.848 116.936 64.56 116.296 64.336C115.656 64.112 115.016 63.952 114.376 63.856C113.736 63.76 113.256 63.712 112.936 63.712C112.808 63.712 112.616 63.632 112.36 63.472C112.104 63.312 111.976 63.12 111.976 62.896C111.976 62.64 112.104 62.448 112.36 62.32C112.616 62.16 112.808 62.08 112.936 62.08C113.736 62.08 114.424 62.096 115 62.128C115.576 62.16 116.168 62.192 116.776 62.224C117.384 62.256 118.12 62.272 118.984 62.272C119.816 62.272 120.52 62.24 121.096 62.176C121.672 62.112 122.392 62.08 123.256 62.08C123.384 62.08 123.576 62.128 123.832 62.224C124.12 62.32 124.264 62.528 124.264 62.848C124.264 63.072 124.12 63.264 123.832 63.424C123.576 63.584 123.384 63.68 123.256 63.712C122.552 63.904 122.056 64.192 121.768 64.576C121.512 64.928 121.336 65.424 121.24 66.064C121.144 66.768 121.08 67.392 121.048 67.936C121.016 68.48 121 69.056 121 69.664V70.96C121 71.12 121.032 71.248 121.096 71.344C121.16 71.44 121.224 71.568 121.288 71.728C121.384 71.888 121.512 72.032 121.672 72.16C121.832 72.288 121.912 72.416 121.912 72.544C121.912 72.672 121.88 72.848 121.816 73.072C121.784 73.264 121.592 73.392 121.24 73.456C121.016 73.488 120.568 73.68 119.896 74.032C119.256 74.352 118.44 74.72 117.448 75.136C116.456 75.552 115.32 75.904 114.04 76.192C112.76 76.512 111.352 76.672 109.816 76.672ZM143.537 76.912C143.313 76.912 143.201 76.784 143.201 76.528C143.201 76.208 143.233 75.744 143.297 75.136C143.393 74.496 143.441 73.968 143.441 73.552C143.441 73.488 143.441 73.44 143.441 73.408C143.441 73.344 143.441 73.296 143.441 73.264C142.193 74.48 140.929 75.36 139.649 75.904C138.401 76.416 137.025 76.672 135.521 76.672C134.497 76.672 133.569 76.448 132.737 76C131.905 75.584 131.249 74.96 130.769 74.128C130.289 73.264 130.049 72.208 130.049 70.96V61.216C130.049 60.512 129.889 59.952 129.569 59.536C129.249 59.12 128.721 58.768 127.985 58.48C127.825 58.416 127.681 58.336 127.553 58.24C127.425 58.144 127.361 57.968 127.361 57.712C127.361 57.424 127.425 57.232 127.553 57.136C127.713 57.04 127.889 56.976 128.081 56.944C129.169 56.88 130.001 56.8 130.577 56.704C131.185 56.576 131.937 56.4 132.833 56.176C132.929 56.144 132.993 56.128 133.025 56.128C133.089 56.128 133.153 56.128 133.217 56.128C133.569 56.128 133.729 56.352 133.697 56.8C133.601 57.536 133.521 58.16 133.457 58.672C133.425 59.152 133.409 59.76 133.409 60.496V69.856C133.409 70.624 133.601 71.344 133.985 72.016C134.369 72.656 134.865 73.184 135.473 73.6C136.113 74.016 136.769 74.224 137.441 74.224C138.273 74.224 138.993 74.176 139.601 74.08C140.241 73.984 140.865 73.712 141.473 73.264C141.825 73.008 142.273 72.592 142.817 72.016C143.361 71.44 143.633 70.656 143.633 69.664V60.88C143.633 60.208 143.425 59.712 143.009 59.392C142.625 59.04 142.177 58.8 141.665 58.672C141.153 58.544 140.737 58.48 140.417 58.48C140.129 58.48 139.889 58.432 139.697 58.336C139.505 58.208 139.409 57.984 139.409 57.664C139.409 57.376 139.505 57.184 139.697 57.088C139.921 56.992 140.161 56.944 140.417 56.944C141.409 56.912 142.225 56.88 142.865 56.848C143.537 56.784 144.129 56.704 144.641 56.608C145.185 56.48 145.745 56.336 146.321 56.176C146.385 56.144 146.465 56.128 146.561 56.128C146.657 56.096 146.737 56.08 146.801 56.08C147.217 56.08 147.425 56.256 147.425 56.608C147.425 56.64 147.409 56.704 147.377 56.8C147.377 56.864 147.361 56.944 147.329 57.04C147.297 57.136 147.249 57.408 147.185 57.856C147.153 58.304 147.105 58.768 147.041 59.248C147.009 59.728 146.993 60.096 146.993 60.352V71.44C146.993 72.304 147.073 72.928 147.233 73.312C147.425 73.664 147.633 73.84 147.857 73.84C148.113 73.84 148.481 73.824 148.961 73.792C149.473 73.728 149.841 73.696 150.065 73.696C150.225 73.696 150.385 73.728 150.545 73.792C150.705 73.856 150.785 74.032 150.785 74.32C150.785 74.576 150.721 74.752 150.593 74.848C150.465 74.912 150.305 74.96 150.113 74.992C148.865 75.152 147.793 75.392 146.897 75.712C146.001 76.032 145.201 76.336 144.497 76.624C144.401 76.656 144.257 76.704 144.065 76.768C143.873 76.864 143.697 76.912 143.537 76.912ZM153.393 76.144C153.105 76.144 152.865 76.096 152.673 76C152.513 75.936 152.433 75.808 152.433 75.616C152.433 75.36 152.545 75.184 152.769 75.088C153.025 74.992 153.281 74.912 153.537 74.848C154.209 74.688 154.721 74.496 155.073 74.272C155.425 74.016 155.601 73.6 155.601 73.024V62.608C155.601 61.744 155.441 60.976 155.121 60.304C154.833 59.632 154.273 59.232 153.441 59.104C153.281 59.072 153.153 59.008 153.057 58.912C152.993 58.816 152.961 58.672 152.961 58.48C152.961 58.128 153.105 57.936 153.393 57.904C154.673 57.616 155.729 57.232 156.561 56.752C157.393 56.24 158.017 55.824 158.433 55.504C158.721 55.28 158.945 55.168 159.105 55.168C159.297 55.168 159.393 55.248 159.393 55.408C159.393 55.664 159.345 56.176 159.249 56.944C159.185 57.68 159.121 58.512 159.057 59.44C158.993 60.336 158.961 61.152 158.961 61.888V73.024C158.961 73.568 159.137 73.968 159.489 74.224C159.873 74.48 160.385 74.688 161.025 74.848C161.281 74.912 161.521 74.992 161.745 75.088C162.001 75.184 162.129 75.36 162.129 75.616C162.129 75.968 161.809 76.144 161.169 76.144C160.561 76.144 160.065 76.112 159.681 76.048C159.329 76.016 158.977 75.984 158.625 75.952C158.305 75.92 157.857 75.904 157.281 75.904C156.737 75.904 156.289 75.92 155.937 75.952C155.585 75.984 155.233 76.016 154.881 76.048C154.529 76.112 154.033 76.144 153.393 76.144ZM157.233 51.232C156.561 51.232 155.985 51.008 155.505 50.56C155.057 50.08 154.833 49.504 154.833 48.832C154.833 48.128 155.057 47.552 155.505 47.104C155.985 46.624 156.561 46.384 157.233 46.384C157.937 46.384 158.513 46.624 158.961 47.104C159.441 47.552 159.681 48.128 159.681 48.832C159.681 49.504 159.441 50.08 158.961 50.56C158.513 51.008 157.937 51.232 157.233 51.232ZM180.183 76.912C180.119 76.912 180.007 76.848 179.847 76.72C179.719 76.592 179.655 76.496 179.655 76.432C179.655 76.112 179.687 75.664 179.751 75.088C179.847 74.48 179.895 73.968 179.895 73.552V73.264C179.415 74 178.647 74.752 177.591 75.52C176.535 76.288 175.207 76.672 173.607 76.672C171.783 76.672 170.199 76.192 168.855 75.232C167.543 74.272 166.519 73.04 165.783 71.536C165.079 70.032 164.727 68.48 164.727 66.88C164.727 65.024 165.159 63.28 166.023 61.648C166.887 60.016 168.119 58.688 169.719 57.664C171.351 56.64 173.287 56.128 175.527 56.128C176.167 56.128 176.807 56.192 177.447 56.32C178.119 56.416 178.631 56.528 178.983 56.656C179.271 56.752 179.479 56.8 179.607 56.8C179.831 56.8 179.943 56.416 179.943 55.648V48.832C179.943 47.52 179.735 46.64 179.319 46.192C178.903 45.744 178.311 45.456 177.543 45.328C177.255 45.264 177.111 45.056 177.111 44.704C177.111 44.416 177.239 44.224 177.495 44.128C178.903 43.776 180.007 43.44 180.807 43.12C181.607 42.8 182.231 42.544 182.679 42.352C182.807 42.288 182.919 42.256 183.015 42.256C183.143 42.224 183.239 42.208 183.303 42.208C183.495 42.208 183.607 42.304 183.639 42.496C183.639 42.688 183.607 43.024 183.543 43.504C183.511 43.952 183.463 44.624 183.399 45.52C183.335 46.416 183.303 47.584 183.303 49.024V70.72C183.303 71.808 183.383 72.608 183.543 73.12C183.703 73.6 183.959 73.84 184.311 73.84C184.471 73.84 184.743 73.824 185.127 73.792C185.543 73.76 185.959 73.728 186.375 73.696C186.951 73.664 187.239 73.808 187.239 74.128C187.239 74.352 187.159 74.56 186.999 74.752C186.871 74.912 186.727 74.992 186.567 74.992C185.671 75.12 184.791 75.312 183.927 75.568C183.063 75.792 182.071 76.144 180.951 76.624C180.695 76.752 180.519 76.832 180.423 76.864C180.359 76.896 180.279 76.912 180.183 76.912ZM175.335 74.176C176.167 74.176 176.983 73.968 177.783 73.552C178.583 73.104 179.287 72.528 179.895 71.824L179.943 63.184C179.943 62.32 179.687 61.472 179.175 60.64C178.695 59.808 178.007 59.136 177.111 58.624C176.247 58.08 175.223 57.808 174.039 57.808C173.303 57.808 172.471 58.032 171.543 58.48C170.615 58.928 169.815 59.728 169.143 60.88C168.471 62 168.135 63.632 168.135 65.776C168.135 67.6 168.407 69.072 168.951 70.192C169.495 71.28 170.151 72.112 170.919 72.688C171.719 73.264 172.519 73.664 173.319 73.888C174.151 74.08 174.823 74.176 175.335 74.176ZM197.552 76.72C195.792 76.72 194.256 76.288 192.944 75.424C191.632 74.56 190.608 73.344 189.872 71.776C189.136 70.176 188.768 68.336 188.768 66.256C188.768 64.4 189.184 62.72 190.016 61.216C190.88 59.68 192.016 58.448 193.424 57.52C194.832 56.592 196.368 56.128 198.032 56.128C199.312 56.128 200.448 56.384 201.44 56.896C202.432 57.408 203.2 58.128 203.744 59.056C204.32 59.952 204.608 60.992 204.608 62.176C204.608 63.168 204.128 63.664 203.168 63.664H193.04C192.592 63.664 192.272 63.792 192.08 64.048C191.92 64.272 191.84 64.736 191.84 65.44C191.84 66.976 192.176 68.384 192.848 69.664C193.52 70.912 194.416 71.92 195.536 72.688C196.656 73.424 197.888 73.792 199.232 73.792C200.192 73.792 201.056 73.616 201.824 73.264C202.624 72.88 203.328 72.336 203.936 71.632C204.064 71.472 204.16 71.376 204.224 71.344C204.288 71.28 204.368 71.248 204.464 71.248C204.72 71.248 204.848 71.408 204.848 71.728C204.848 72.336 204.56 73.008 203.984 73.744C203.504 74.352 202.928 74.88 202.256 75.328C201.584 75.776 200.848 76.112 200.048 76.336C199.248 76.592 198.416 76.72 197.552 76.72ZM193.136 62.176H197.504C198.272 62.176 198.928 62.16 199.472 62.128C200.016 62.096 200.544 62.032 201.056 61.936C201.216 61.904 201.312 61.808 201.344 61.648C201.408 61.456 201.44 61.2 201.44 60.88C201.44 59.952 201.024 59.168 200.192 58.528C199.392 57.856 198.432 57.52 197.312 57.52C196.576 57.52 195.84 57.744 195.104 58.192C194.368 58.608 193.76 59.136 193.28 59.776C192.8 60.416 192.56 61.056 192.56 61.696C192.56 62.016 192.752 62.176 193.136 62.176ZM212.943 76.672C211.951 76.672 211.023 76.512 210.159 76.192C209.295 75.904 208.559 75.488 207.951 74.944C207.791 74.592 207.663 74 207.567 73.168C207.503 72.336 207.455 71.648 207.423 71.104C207.423 70.816 207.631 70.672 208.047 70.672C208.175 70.672 208.287 70.704 208.383 70.768C208.511 70.8 208.591 70.88 208.623 71.008C209.039 72.576 209.695 73.696 210.591 74.368C211.519 75.04 212.447 75.376 213.375 75.376C214.303 75.376 215.087 75.072 215.727 74.464C216.399 73.824 216.735 73.04 216.735 72.112C216.735 71.248 216.447 70.512 215.871 69.904C215.295 69.264 214.287 68.496 212.847 67.6C211.759 66.928 210.879 66.288 210.207 65.68C209.535 65.072 209.039 64.448 208.719 63.808C208.431 63.168 208.287 62.448 208.287 61.648C208.287 60.624 208.527 59.696 209.007 58.864C209.487 58.032 210.207 57.376 211.167 56.896C212.127 56.384 213.327 56.128 214.767 56.128C215.727 56.128 216.527 56.224 217.167 56.416C217.807 56.608 218.287 56.816 218.607 57.04C218.863 57.392 219.071 57.952 219.231 58.72C219.423 59.456 219.519 60.16 219.519 60.832C219.519 61.056 219.359 61.168 219.039 61.168C218.847 61.168 218.655 61.136 218.463 61.072C218.303 60.976 218.191 60.864 218.127 60.736C217.711 59.68 217.183 58.88 216.543 58.336C215.935 57.76 215.167 57.472 214.239 57.472C213.439 57.472 212.719 57.712 212.079 58.192C211.471 58.672 211.167 59.376 211.167 60.304C211.167 61.04 211.391 61.696 211.839 62.272C212.319 62.848 213.199 63.504 214.479 64.24C216.335 65.296 217.711 66.288 218.607 67.216C219.535 68.112 219.999 69.312 219.999 70.816C219.999 72.544 219.343 73.952 218.031 75.04C216.719 76.128 215.023 76.672 212.943 76.672Z" fill="black"/>
<rect y="3" width="80" height="80" rx="8" fill="#D9D9D9"/>
<rect y="3" width="80" height="80" rx="8" fill="#1E1E1E"/>
<path d="M0 61H80V75C80 79.4183 76.4183 83 72 83H8C3.58172 83 0 79.4183 0 75V61Z" fill="#032747"/>
<path d="M10.5 52H42V52C42 56.9706 37.9706 61 33 61H19.5C14.5294 61 10.5 56.9706 10.5 52V52Z" fill="#E5E5EA"/>
<rect x="24" y="32.5" width="4" height="19.5" fill="#E5E5EA"/>
<path d="M45 38.25L30 33.2704V43.2296L45 38.25Z" fill="#830000"/>
<ellipse cx="62.75" cy="38.5" rx="7.25" ry="7" fill="#D9D9D9"/>
</svg>
